<svg version="1.1" id="Layer_1" xmlns="http://www.w3.org/2000/svg" x="0px" y="0px" viewBox="0 0 19.74 24.56" xml:space="preserve" fill="#FFF" width="15px" data-testid="PinterestIcon" class="sc-bBeLUv gYhEjH"><title>Pinterest Icon</title><path fill="#FFF" d="M10,0C4.6,0,0.2,4.4,0.2,9.8c0,5.4,4.4,9.8,9.8,9.8c5.4,0,9.8-4.4,9.8-9.8C19.8,4.4,15.4,0,10,0z M10,18.9                            c-0.9,0-1.8-0.1-2.7-0.4c0.4-0.6,0.9-1.6,1.1-2.4C8.5,15.7,9,14,9,14c0.3,0.6,1.2,1,2.1,1c2.7,0,4.7-2.5,4.7-5.7                            c0-3-2.5-5.3-5.6-5.3c-3.9,0-6,2.6-6,5.5c0,1.3,0.7,3,1.8,3.5c0.2,0.1,0.3,0,0.3-0.1c0-0.1,0.2-0.7,0.3-1c0-0.1,0-0.2-0.1-0.3                            c-0.4-0.5-0.7-1.3-0.7-2.1c0-2,1.5-3.9,4.1-3.9c2.2,0,3.8,1.5,3.8,3.7c0,2.5-1.2,4.2-2.9,4.2c-0.9,0-1.6-0.7-1.3-1.6                            c0.3-1.1,0.8-2.2,0.8-3c0-0.7-0.4-1.3-1.2-1.3c-0.9,0-1.6,0.9-1.6,2.2c0,0.8,0.3,1.3,0.3,1.3S6.9,15,6.7,15.7                            c-0.2,0.8-0.1,1.9,0,2.6C3.3,17,0.9,13.7,0.9,9.8c0-5,4.1-9.1,9.1-9.1c5,0,9.1,4.1,9.1,9.1C19.1,14.9,15,18.9,10,18.9z"></path></svg>